<?xml version="1.0" standalone="no"?>
<!DOCTYPE svg PUBLIC "-//W3C//DTD SVG 20010904//EN"
 "http://www.w3.org/TR/2001/REC-SVG-20010904/DTD/svg10.dtd">
<svg version="1.0" xmlns="http://www.w3.org/2000/svg"
 width="1058.000000pt" height="1058.000000pt" viewBox="0 0 1058.000000 1058.000000"
 preserveAspectRatio="xMidYMid meet">
<metadata>
Created by potrace 1.11, written by Peter Selinger 2001-2013
</metadata>
<g transform="translate(0.000000,1058.000000) scale(0.100000,-0.100000)"
fill="#000000" stroke="none">
<path d="M5290 8742 c0 -6 -11 -9 -25 -7 -14 1 -25 -1 -25 -4 0 -3 -15 -6 -32
-5 -18 0 -39 -4 -45 -9 -9 -6 -13 -5 -13 2 0 9 -5 9 -21 1 -11 -7 -26 -9 -33
-7 -7 3 -19 1 -26 -3 -8 -5 -22 -4 -32 1 -14 8 -16 6 -11 -8 6 -15 4 -16 -9
-5 -12 9 -18 10 -23 2 -5 -8 -11 -7 -23 2 -13 11 -14 11 -8 -1 7 -11 1 -13
-27 -9 -25 3 -38 -1 -42 -10 -3 -8 -10 -10 -17 -6 -16 10 -48 13 -48 4 0 -4
-10 -6 -22 -6 -13 1 -33 -1 -44 -5 -13 -5 -27 -3 -34 4 -10 9 -11 9 -5 -2 6
-11 4 -13 -8 -8 -10 4 -17 2 -17 -5 0 -7 -4 -7 -14 1 -11 9 -15 9 -18 -1 -4
-10 -9 -10 -23 2 -15 12 -17 12 -10 1 6 -11 4 -13 -8 -8 -10 3 -17 2 -17 -3 0
-6 -9 -6 -25 0 -18 7 -23 6 -19 -4 3 -7 -2 -13 -11 -13 -8 0 -15 4 -15 9 0 5
-8 4 -17 -1 -10 -5 -35 -9 -56 -9 -21 0 -43 -5 -50 -10 -15 -13 -27 -13 -51 0
-10 5 -16 6 -13 1 3 -5 -15 -10 -39 -11 -25 -1 -53 -6 -63 -12 -14 -7 -21 -6
-24 3 -4 8 -8 9 -14 2 -4 -6 -19 -11 -33 -12 -63 -4 -86 -8 -93 -18 -6 -7 -10
-6 -14 3 -4 10 -8 10 -20 1 -11 -10 -16 -10 -23 0 -4 8 -9 9 -11 3 -2 -6 -24
-12 -49 -15 -25 -3 -54 -9 -64 -13 -14 -5 -17 -4 -11 5 6 10 3 11 -14 2 -11
-7 -21 -9 -21 -7 0 3 -11 1 -24 -4 -17 -6 -26 -5 -30 3 -3 9 -5 8 -5 -1 -1 -7
-5 -10 -11 -7 -5 3 -10 1 -10 -6 0 -9 -3 -9 -14 0 -8 7 -17 8 -19 4 -3 -5 -21
-10 -39 -11 -49 -4 -67 -7 -74 -15 -4 -3 -15 -2 -25 3 -10 6 -20 6 -23 1 -3
-5 -19 -8 -36 -7 -16 1 -30 -1 -30 -5 0 -4 -9 -5 -20 -2 -12 3 -20 0 -20 -7 0
-10 -3 -10 -15 0 -9 7 -15 8 -15 2 0 -12 -18 -11 -39 2 -10 7 -12 6 -6 -4 6
-10 3 -12 -13 -8 -12 4 -22 1 -22 -4 0 -6 -8 -4 -17 3 -14 12 -16 12 -8 0 6
-11 4 -13 -8 -8 -10 3 -17 2 -17 -3 0 -6 -8 -10 -18 -10 -10 0 -24 -6 -31 -12
-11 -11 -13 -10 -7 2 4 8 1 7 -8 -4 -8 -10 -19 -15 -25 -11 -6 3 -11 1 -11 -5
0 -6 -4 -8 -10 -5 -5 3 -10 2 -10 -4 0 -6 -7 -8 -15 -5 -8 4 -15 1 -15 -6 0
-7 -7 -10 -15 -6 -8 3 -15 1 -15 -4 0 -5 -9 -7 -20 -5 -11 2 -18 1 -16 -4 3
-4 -4 -13 -16 -20 -16 -10 -19 -10 -12 1 6 10 4 10 -9 -1 -9 -7 -17 -10 -17
-6 0 5 -10 0 -22 -11 -13 -12 -18 -13 -13 -4 6 10 1 9 -13 -3 -11 -11 -25 -16
-31 -13 -5 3 -11 1 -13 -4 -2 -6 -16 -12 -32 -14 -15 -2 -32 -9 -37 -17 -5 -8
-9 -10 -9 -6 0 5 -10 1 -22 -7 -16 -12 -25 -13 -35 -4 -11 9 -13 8 -11 -3 2
-8 -4 -14 -12 -14 -8 0 -19 -6 -23 -13 -5 -7 -13 -9 -19 -6 -6 4 -14 0 -19 -7
-7 -11 -9 -11 -9 -1 0 10 -4 9 -16 -2 -8 -9 -20 -14 -25 -11 -5 4 -9 2 -9 -4
0 -6 -6 -8 -14 -5 -7 3 -16 -2 -20 -11 -3 -9 -10 -14 -16 -10 -5 3 -17 1 -27
-4 -47 -26 -93 -42 -103 -36 -5 3 -13 -1 -16 -9 -3 -9 -9 -14 -13 -12 -3 2
-24 -4 -45 -15 -21 -10 -42 -16 -46 -14 -5 3 -10 0 -12 -6 -2 -7 -18 -12 -35
-13 -17 0 -31 -5 -30 -10 1 -4 -9 -10 -23 -12 -13 -3 -28 -10 -32 -17 -4 -6
-8 -8 -8 -3 0 5 -6 3 -13 -3 -8 -6 -16 -8 -20 -5 -3 3 -17 -2 -31 -11 -14 -10
-26 -14 -26 -10 0 4 -6 2 -13 -4 -8 -6 -17 -8 -20 -4 -4 3 -7 1 -7 -6 0 -8 -6
-11 -16 -7 -8 3 -12 2 -9 -4 3 -6 -3 -10 -14 -10 -10 0 -22 -6 -24 -12 -4 -10
-8 -10 -15 0 -7 11 -11 10 -16 -4 -3 -9 -9 -14 -12 -11 -3 3 -17 -1 -31 -8
-15 -8 -30 -12 -35 -9 -4 3 -8 0 -8 -5 0 -6 -7 -11 -15 -11 -8 0 -15 -6 -15
-12 0 -10 -3 -9 -9 1 -6 9 -11 10 -15 2 -4 -6 -16 -11 -26 -11 -10 0 -24 -8
-29 -17 -8 -14 -11 -15 -11 -3 -1 13 -2 13 -13 0 -7 -8 -21 -17 -32 -18 -11
-2 -25 -8 -32 -14 -7 -5 -17 -7 -23 -3 -5 3 -10 1 -10 -5 0 -7 -7 -10 -15 -6
-8 3 -15 2 -15 -2 0 -4 -12 -15 -25 -25 -24 -17 -24 -17 -19 0 3 10 -3 3 -15
-15 -12 -18 -26 -30 -31 -27 -6 4 -7 -1 -3 -12 3 -10 3 -15 -1 -12 -8 8 -105
-83 -99 -93 4 -8 -13 -12 -32 -8 -5 1 -7 -2 -3 -6 4 -4 -9 -23 -30 -42 -20
-20 -36 -39 -35 -44 2 -4 -4 -8 -12 -8 -8 0 -15 -5 -15 -11 0 -5 -4 -7 -10 -4
-5 3 -10 1 -10 -5 0 -18 -90 -101 -102 -94 -6 4 -8 3 -4 -4 8 -13 -61 -85 -75
-76 -5 3 -8 0 -7 -8 2 -7 -3 -12 -10 -10 -8 1 -11 -2 -7 -8 3 -5 2 -10 -4 -10
-5 0 -12 -9 -16 -19 -4 -12 -12 -18 -21 -14 -7 3 -14 0 -14 -6 0 -17 -33 -51
-49 -51 -8 0 -12 -3 -9 -6 8 -8 -37 -54 -52 -54 -7 0 -11 -3 -7 -6 9 -9 -21
-36 -33 -29 -6 4 -7 -1 -3 -12 3 -10 3 -15 -1 -11 -10 8 -36 -14 -29 -24 2 -5
-1 -8 -6 -8 -6 0 -21 -11 -33 -25 -11 -13 -26 -21 -32 -18 -6 3 -8 3 -4 -1 10
-11 -89 -109 -102 -101 -6 3 -10 3 -9 -2 3 -17 -1 -33 -8 -31 -5 1 -40 -30
-80 -69 -39 -39 -74 -69 -76 -66 -3 2 -8 -5 -12 -16 -3 -12 -11 -19 -16 -16
-5 4 -14 -6 -21 -20 -8 -18 -14 -22 -20 -13 -6 11 -8 10 -8 0 0 -7 -12 -24
-27 -38 -16 -14 -21 -22 -13 -18 10 5 9 0 -4 -14 -11 -12 -16 -22 -11 -22 4 0
2 -6 -4 -13 -6 -8 -8 -17 -4 -20 3 -4 2 -7 -4 -7 -6 0 -9 -11 -8 -25 2 -14 -2
-25 -8 -25 -8 0 -7 -3 2 -9 9 -6 10 -10 2 -16 -7 -3 -9 -15 -6 -26 5 -14 2
-19 -12 -19 -15 0 -15 -2 -4 -9 12 -8 12 -12 2 -24 -8 -10 -9 -17 -1 -22 7 -4
7 -12 0 -26 -8 -13 -7 -19 0 -19 7 0 8 -5 3 -12 -12 -20 -12 -108 1 -108 6 0
4 -5 -4 -10 -11 -7 -11 -10 -2 -10 8 0 10 -5 5 -12 -10 -18 -13 -38 -4 -38 7
0 14 -46 13 -87 0 -13 4 -20 9 -17 5 3 9 -6 9 -20 0 -14 6 -26 13 -26 8 0 7
-4 -3 -10 -10 -6 -11 -10 -2 -10 6 0 12 -9 12 -20 0 -11 4 -20 9 -20 5 0 8
-13 7 -29 -1 -17 1 -28 5 -26 10 7 30 -45 23 -57 -4 -7 -2 -8 4 -4 8 5 12 -2
12 -19 0 -17 4 -24 12 -19 8 5 9 2 5 -10 -4 -10 -1 -19 8 -22 8 -4 13 -10 10
-14 -8 -12 6 -41 16 -34 8 5 10 0 13 -38 1 -7 9 -19 18 -26 10 -7 18 -22 18
-33 0 -10 5 -19 11 -19 6 0 8 -7 5 -16 -5 -12 -2 -15 9 -10 9 3 13 2 10 -3 -3
-5 -1 -12 5 -16 6 -4 8 -10 6 -14 -3 -4 4 -14 15 -21 10 -8 19 -20 19 -26 0
-6 13 -25 29 -42 16 -16 27 -33 24 -35 -3 -3 4 -11 15 -18 12 -7 18 -19 14
-28 -3 -9 -2 -13 2 -9 5 4 19 -3 32 -15 14 -12 34 -30 44 -39 11 -10 25 -18
31 -18 8 0 7 -6 -2 -17 -13 -15 -12 -15 8 -4 19 10 24 8 39 -14 9 -14 21 -25
26 -25 14 0 38 -27 30 -34 -3 -4 1 -4 10 -1 9 4 18 0 21 -9 4 -9 14 -16 22
-16 9 0 13 -4 10 -10 -3 -5 1 -10 10 -10 10 0 13 -5 9 -12 -4 -6 -3 -9 2 -5
13 8 47 -20 39 -32 -4 -7 0 -8 11 -4 12 4 15 3 10 -6 -4 -6 -4 -11 1 -10 21 4
34 -2 27 -12 -4 -7 -1 -10 6 -7 7 2 28 -11 47 -29 18 -19 33 -31 33 -27 0 4
12 -6 26 -22 15 -16 23 -22 19 -14 -5 8 3 4 17 -10 13 -14 36 -33 51 -44 15
-10 24 -23 20 -29 -4 -6 0 -8 10 -4 11 4 20 -1 27 -13 6 -11 16 -20 24 -20 7
0 22 -10 34 -22 29 -32 52 -50 52 -42 0 4 9 -1 20 -11 11 -10 17 -22 14 -27
-3 -4 -2 -8 3 -7 15 4 43 -13 37 -22 -3 -5 -2 -9 3 -8 20 3 34 -2 28 -11 -5
-9 7 -14 27 -11 4 0 10 -8 13 -19 4 -11 15 -20 26 -20 11 0 17 -4 14 -10 -3
-5 -1 -10 5 -10 6 0 8 -5 4 -12 -5 -8 -2 -8 10 1 15 12 17 12 14 0 -2 -8 3
-13 10 -12 6 2 12 -4 12 -12 0 -8 6 -14 13 -12 6 1 11 -6 11 -15 -1 -11 4 -14
13 -11 9 4 24 -5 38 -21 12 -14 26 -26 31 -26 5 0 16 -9 24 -20 8 -11 20 -20
27 -20 7 0 13 -4 13 -10 0 -5 7 -10 16 -10 8 0 12 -4 9 -10 -3 -5 -1 -10 5
-10 14 0 41 -26 35 -34 -3 -3 -2 -4 1 -1 11 7 45 -15 39 -25 -3 -6 1 -7 9 -4
8 3 19 -3 26 -15 6 -12 17 -21 25 -21 8 0 20 -8 27 -18 7 -10 21 -21 30 -25
11 -4 16 -13 12 -24 -5 -14 -4 -15 4 -4 12 17 35 4 28 -16 -3 -8 -2 -12 3 -8
5 3 16 -2 25 -10 8 -9 19 -17 23 -18 4 -1 7 -5 6 -9 -2 -5 4 -8 12 -8 8 0 15
-4 15 -10 0 -5 7 -10 15 -10 8 0 15 -7 15 -16 0 -8 4 -13 9 -9 5 3 26 -11 47
-30 20 -19 41 -35 46 -35 5 0 11 -7 14 -15 4 -8 10 -13 14 -10 4 3 10 -2 14
-10 3 -8 10 -15 16 -15 16 0 40 -26 32 -35 -4 -4 -2 -6 3 -5 21 5 36 0 30 -10
-3 -5 3 -10 15 -10 12 0 18 -4 15 -10 -3 -5 1 -10 10 -10 9 0 13 -4 10 -10 -3
-5 1 -10 9 -10 9 0 16 -4 16 -10 0 -5 6 -10 13 -10 7 0 20 -8 28 -17 9 -10 28
-26 42 -37 15 -10 24 -23 20 -29 -3 -6 -1 -7 5 -3 10 6 24 -3 66 -39 55 -49
105 -83 111 -77 5 4 6 3 3 -3 -3 -5 0 -16 8 -23 8 -7 14 -10 14 -6 0 4 9 -3
20 -16 11 -13 20 -20 20 -16 0 4 6 1 14 -6 8 -7 12 -16 10 -19 -2 -4 3 -10 12
-13 10 -4 13 -2 8 7 -5 8 -2 7 9 -2 9 -7 17 -20 17 -27 0 -8 3 -13 8 -13 19 3
33 -2 27 -11 -3 -6 -1 -10 5 -10 11 0 24 -9 61 -42 10 -10 24 -18 29 -18 6 0
13 -7 16 -15 4 -8 11 -12 17 -8 6 4 8 0 4 -10 -4 -11 -2 -14 8 -10 8 3 18 -2
21 -11 3 -9 10 -13 15 -10 5 3 9 -2 9 -11 0 -9 5 -15 11 -13 7 2 29 -13 50
-34 21 -21 45 -38 54 -38 9 0 14 -3 12 -8 -3 -4 1 -13 9 -20 8 -7 14 -10 14
-7 0 2 9 -3 19 -12 11 -9 17 -21 14 -26 -3 -6 -1 -7 5 -3 6 3 18 -1 26 -10 9
-8 16 -12 16 -8 0 4 8 -3 19 -14 10 -12 24 -22 30 -22 7 0 9 -4 6 -10 -3 -5 1
-10 10 -10 10 0 13 -5 9 -12 -4 -7 -3 -8 5 -4 7 5 26 -7 48 -31 20 -21 32 -31
28 -23 -4 8 4 3 17 -12 14 -15 28 -25 32 -21 3 3 6 -1 6 -10 0 -9 6 -16 13
-14 6 1 11 -4 9 -11 -1 -8 2 -11 7 -8 5 4 14 -2 20 -11 7 -12 10 -14 11 -4 0
8 8 3 20 -12 11 -14 29 -29 40 -32 11 -4 18 -11 15 -16 -4 -5 1 -9 9 -9 9 0
16 -4 16 -10 0 -5 7 -10 16 -10 8 0 12 -4 9 -10 -3 -5 -1 -10 6 -10 6 0 20 -9
30 -21 9 -11 21 -21 26 -22 4 -1 7 -5 6 -9 -2 -4 4 -5 12 -2 10 4 15 0 15 -11
0 -9 4 -14 9 -11 5 3 11 -1 15 -9 3 -8 11 -15 17 -15 6 0 19 -8 28 -17 9 -10
30 -26 46 -35 17 -10 29 -24 29 -32 -1 -8 1 -15 5 -14 20 2 31 -4 25 -14 -4
-7 -3 -8 4 -4 6 4 20 -2 32 -14 11 -11 25 -20 30 -20 6 0 13 -7 16 -15 4 -8
10 -12 15 -9 5 3 9 -2 9 -10 0 -9 7 -16 15 -16 8 0 20 -9 27 -20 7 -11 18 -20
25 -20 7 0 13 -4 13 -10 0 -5 7 -10 15 -10 8 0 19 -9 25 -20 6 -11 15 -20 21
-20 6 0 24 -14 39 -30 19 -20 30 -26 33 -18 4 9 6 8 6 -2 1 -8 15 -23 32 -32
17 -10 28 -22 24 -28 -3 -6 1 -7 9 -4 11 4 16 0 16 -11 0 -9 4 -14 9 -10 5 3
17 -5 25 -17 9 -12 16 -19 16 -15 0 4 6 3 13 -3 50 -42 65 -59 59 -66 -4 -4
-1 -4 6 0 15 9 55 -27 44 -38 -3 -4 1 -4 11 0 9 3 17 1 17 -4 0 -6 9 -14 20
-17 11 -4 18 -11 15 -16 -4 -5 3 -9 15 -9 12 0 18 -4 15 -10 -3 -5 1 -10 10
-10 9 0 13 -4 10 -10 -3 -5 1 -10 9 -10 9 0 16 -5 16 -11 0 -6 7 -8 16 -5 15
6 15 4 3 -11 -9 -10 -9 -14 -2 -10 7 5 21 -1 33 -13 11 -11 26 -18 32 -14 7 4
8 3 4 -4 -4 -7 -2 -12 4 -12 6 0 8 -5 5 -10 -4 -6 -3 -10 2 -9 21 4 34 -2 27
-13 -5 -8 -2 -9 9 -5 11 4 17 1 17 -8 0 -8 6 -15 14 -15 7 0 21 -10 30 -23 9
-12 14 -16 10 -8 -5 10 -3 12 5 7 7 -5 10 -15 7 -23 -5 -11 -2 -13 10 -9 10 4
23 -3 36 -19 11 -14 26 -25 34 -25 8 0 14 -7 14 -16 0 -9 6 -14 13 -11 6 2 24
-9 39 -25 14 -15 31 -28 38 -28 6 0 8 -5 5 -10 -3 -5 3 -10 15 -10 12 0 19 -4
16 -8 -2 -4 -1 -14 5 -22 6 -11 9 -11 9 -2 0 10 3 10 14 0 8 -7 12 -16 10 -20
-2 -3 5 -4 16 -1 11 3 20 10 20 16 0 6 3 8 6 4 3 -3 15 2 26 11 11 9 29 25 40
35 12 9 25 17 30 17 5 0 6 4 3 10 -3 5 1 10 10 10 9 0 13 4 10 10 -3 6 1 7 9
4 11 -4 16 0 16 11 0 9 4 14 8 11 5 -3 20 6 34 19 14 13 29 21 32 18 3 -4 6
-1 6 5 0 6 16 22 35 35 19 13 33 27 30 30 -3 4 -2 5 1 2 11 -7 45 15 39 26 -4
5 1 9 9 9 8 0 27 11 41 25 14 14 25 23 25 19 0 -4 12 6 26 22 15 16 23 22 18
14 -7 -13 -5 -13 9 -1 9 7 14 18 10 24 -3 6 -1 7 5 3 7 -4 12 -2 12 3 0 6 6
10 13 9 6 -2 11 2 10 9 -2 8 4 10 14 6 12 -5 15 -2 10 10 -4 11 -2 14 7 11 8
-3 17 0 22 7 5 8 3 10 -6 4 -8 -5 -11 -4 -6 3 3 6 16 9 28 7 11 -3 18 -2 15 1
-7 7 30 44 44 44 5 0 7 5 3 12 -5 8 -2 9 12 4 10 -4 15 -4 11 0 -11 11 13 34
35 34 10 0 17 4 14 9 -6 10 23 26 39 22 5 -2 7 1 3 5 -4 4 10 20 32 36 22 17
40 34 40 39 0 6 5 7 10 4 6 -3 13 1 16 10 4 9 13 14 21 11 8 -3 11 -1 8 4 -3
6 1 10 10 10 10 0 13 5 9 12 -5 8 -2 9 9 5 10 -4 16 -2 14 5 -1 7 8 17 21 23
12 5 22 15 22 21 0 7 6 11 13 10 6 0 13 3 14 8 0 5 17 19 37 31 20 12 33 25
29 28 -3 4 1 7 10 7 10 0 17 5 17 11 0 8 5 7 15 -1 13 -11 15 -10 11 1 -3 8
12 27 35 44 22 17 51 41 66 55 14 14 22 18 18 10 -5 -8 8 2 29 22 20 21 50 45
66 53 17 9 30 21 30 27 0 6 3 8 7 5 3 -4 13 2 21 14 8 11 20 18 28 15 8 -3 13
0 11 7 -1 7 4 11 11 9 8 -1 11 2 7 8 -4 7 2 14 14 17 12 3 21 12 21 19 0 8 3
14 8 13 20 -3 53 15 48 26 -6 16 21 28 37 18 7 -3 9 -3 5 2 -8 8 51 61 64 58
4 -2 8 3 8 11 0 8 5 18 12 22 7 5 8 3 3 -7 -7 -11 -6 -12 7 -2 8 7 18 10 22 6
4 -4 4 1 0 11 -5 13 -4 17 4 12 6 -3 15 2 21 11 6 10 11 15 11 11 0 -3 14 7
31 23 17 16 36 26 42 22 6 -3 7 -1 3 5 -4 7 2 16 17 21 13 5 27 17 30 25 4 9
13 16 20 16 8 0 23 11 33 25 10 14 24 25 31 25 7 0 13 5 13 10 0 6 8 10 18 8
9 -2 16 2 15 9 -2 6 13 21 32 33 19 12 35 26 35 31 0 6 4 8 9 4 6 -3 14 2 20
12 5 10 27 29 50 42 22 14 38 29 35 33 -3 4 1 8 9 8 7 0 23 9 35 20 12 11 26
20 32 20 5 0 10 7 10 15 0 8 3 14 8 14 19 -3 33 2 27 11 -3 6 -1 11 4 11 6 1
15 2 20 3 5 0 13 5 18 10 5 5 2 6 -7 2 -8 -4 -6 -1 5 8 11 8 25 20 31 25 7 5
15 7 18 4 3 -4 6 2 6 12 0 10 3 16 6 12 4 -3 12 -1 19 6 7 7 30 26 50 42 21
17 43 35 50 42 7 7 15 10 18 7 3 -3 10 4 17 15 6 12 15 19 21 16 5 -4 9 -1 9
5 0 6 5 8 12 4 7 -4 8 -3 4 4 -4 7 3 17 18 24 14 6 26 15 26 20 0 5 4 7 9 3 5
-3 12 4 16 15 4 11 10 18 15 15 5 -3 16 5 24 17 11 15 16 18 17 8 0 -10 3 -9
8 3 4 10 9 18 11 17 3 -1 25 16 50 39 25 22 51 41 58 41 8 0 10 5 6 12 -5 8
-2 9 12 4 10 -4 16 -4 12 -1 -3 4 1 15 10 24 12 13 21 15 30 8 7 -6 12 -6 11
-1 -4 16 13 44 22 38 5 -3 12 2 15 10 3 9 10 13 15 10 5 -3 9 0 9 5 0 6 7 11
16 11 8 0 13 3 11 8 -3 4 1 13 9 20 8 7 14 10 14 7 0 -3 8 3 18 13 11 9 32 26
48 37 16 11 39 30 51 41 12 12 24 19 27 16 3 -3 6 0 6 7 0 7 3 10 8 8 4 -3 16
5 27 16 11 11 14 16 6 12 -10 -5 -12 -4 -7 4 4 6 11 9 15 6 5 -2 20 6 35 20
14 13 26 21 26 18 0 -3 10 6 23 20 12 15 28 27 35 27 7 0 10 5 7 10 -3 6 0 10
8 10 8 0 20 7 27 15 7 8 17 12 24 8 6 -3 8 -3 4 1 -8 10 14 36 25 29 4 -2 10
3 13 11 3 9 13 16 21 16 8 0 11 5 7 12 -5 8 -2 9 10 5 14 -6 17 -3 12 9 -5 14
-4 15 9 4 13 -11 14 -10 10 2 -4 10 4 19 24 28 17 7 28 16 25 21 -3 5 2 9 10
9 9 0 16 5 16 10 0 6 5 10 10 10 6 0 22 12 35 26 14 15 25 23 25 19 0 -4 12 4
26 18 15 15 31 24 37 20 6 -3 7 -1 3 5 -6 11 6 16 26 13 5 0 7 3 5 8 -1 6 21
28 50 49 29 22 49 42 46 46 -6 6 21 10 40 7 5 -1 6 3 3 8 -3 5 10 19 29 32 19
13 35 27 35 32 0 4 6 7 13 7 7 0 19 9 27 20 8 11 20 20 26 20 7 0 22 12 33 26
11 14 24 24 28 21 10 -5 43 29 36 37 -4 3 3 6 15 6 13 0 22 6 22 16 0 8 5 12
10 9 6 -3 10 -1 10 4 0 6 6 11 13 11 7 0 18 9 25 21 8 12 19 18 28 15 8 -3 13
-2 10 3 -7 10 28 44 37 35 3 -3 10 4 17 15 6 12 15 19 19 16 5 -3 12 2 15 11
3 8 10 12 16 9 6 -4 7 1 3 11 -4 12 -3 15 5 10 7 -4 22 4 36 19 16 17 30 24
38 19 7 -4 10 -4 6 1 -10 11 20 38 33 29 7 -4 9 -3 6 2 -3 6 -2 16 4 24 7 13
9 13 9 0 0 -9 8 -4 18 13 10 15 22 24 25 20 4 -3 7 0 7 7 0 7 3 10 6 7 4 -4
18 6 30 21 13 15 24 23 24 19 0 -12 35 25 35 37 0 6 8 10 17 10 11 -1 14 4 11
13 -3 9 5 24 19 36 13 12 17 18 9 12 -10 -6 -8 0 4 16 11 15 23 25 26 23 4 -2
10 8 13 21 4 14 11 23 17 20 5 -4 9 -3 8 2 -5 26 2 45 15 40 10 -4 14 0 11 11
-4 21 29 64 41 54 5 -4 3 0 -4 9 -10 14 -10 18 3 23 8 3 15 15 15 26 0 11 4
20 9 20 5 0 8 8 7 18 0 9 4 16 10 15 6 -1 9 10 6 28 -3 17 0 29 7 29 6 0 10 6
8 13 -1 6 3 11 8 10 6 -1 11 17 12 40 2 24 9 45 18 50 9 4 13 13 9 18 -3 5 0
26 7 47 7 20 12 43 10 51 -1 8 2 10 11 5 10 -6 10 -4 -1 9 -11 14 -11 17 0 17
11 0 11 2 -1 10 -12 8 -12 10 -1 10 11 0 11 3 1 15 -7 8 -8 15 -3 15 5 0 9 10
8 23 -1 12 2 27 7 34 5 7 5 14 -2 18 -7 4 -7 12 0 25 7 13 6 20 -3 23 -9 4 -8
6 2 6 10 1 11 4 2 15 -9 10 -9 16 -1 21 8 5 8 11 -1 21 -6 7 -9 20 -6 28 3 7
0 19 -6 25 -6 6 -8 11 -4 11 4 0 3 10 -4 21 -7 14 -7 19 0 15 6 -4 4 9 -5 29
-8 20 -12 40 -9 44 3 5 -3 12 -12 15 -15 6 -15 8 -3 16 13 8 12 10 -2 10 -10
0 -17 4 -15 9 3 16 -35 69 -60 82 -12 7 -20 16 -17 21 3 4 0 8 -6 8 -6 0 -8 5
-5 10 4 6 3 10 -2 9 -17 -3 -36 1 -30 7 3 3 -17 26 -43 51 -27 25 -47 50 -44
55 3 5 2 8 -3 7 -18 -3 -34 1 -30 9 5 9 -30 42 -37 34 -3 -3 -6 0 -6 7 0 16
-26 42 -34 34 -3 -4 -6 -1 -6 5 0 14 -56 72 -70 72 -5 0 -10 7 -10 16 0 8 -4
13 -9 9 -5 -3 -12 4 -16 15 -3 11 -11 20 -16 20 -6 0 -7 5 -3 12 4 7 3 8 -5 4
-6 -4 -14 0 -17 8 -3 9 -13 16 -22 16 -8 0 -13 3 -10 6 7 7 -79 94 -92 94 -6
0 -9 6 -7 13 1 6 -4 11 -10 10 -7 -2 -13 4 -13 12 0 8 -9 20 -20 27 -11 7 -20
19 -20 26 0 7 -4 11 -9 7 -13 -7 -43 24 -35 37 4 7 2 8 -4 4 -7 -4 -12 -3 -12
3 0 5 -9 13 -20 16 -11 3 -20 11 -20 16 0 15 -26 39 -34 32 -3 -4 -6 1 -6 11
0 9 -4 14 -10 11 -5 -3 -10 0 -10 8 0 8 -11 22 -25 31 -14 9 -23 21 -20 27 4
5 1 8 -6 7 -7 -2 -13 4 -14 12 0 9 -8 14 -18 12 -10 -2 -16 3 -15 10 2 7 -3
12 -9 11 -7 -2 -13 7 -13 19 0 12 -3 19 -6 15 -9 -8 -74 57 -74 74 0 11 -2 11
-10 -1 -6 -10 -10 -11 -10 -3 0 18 -32 53 -47 53 -12 0 -18 14 -13 35 1 5 -1
7 -5 3 -9 -9 -35 16 -35 34 0 10 -3 9 -10 -2 -6 -10 -10 -11 -10 -2 0 18 -31
46 -68 61 -18 7 -32 19 -32 25 0 6 -5 4 -10 -4 -6 -10 -10 -11 -10 -2 0 6 -9
12 -20 12 -11 0 -20 4 -20 9 0 6 -9 8 -19 6 -11 -2 -22 3 -25 12 -4 9 -9 13
-13 10 -3 -4 -13 -1 -21 5 -8 7 -20 13 -26 14 -6 0 -19 2 -29 2 -10 1 -16 6
-13 10 2 4 -7 9 -22 10 -15 1 -29 7 -30 12 -2 6 -8 8 -13 4 -5 -3 -9 -1 -9 5
0 6 -6 8 -14 5 -8 -3 -17 -1 -21 5 -3 6 -15 11 -26 11 -10 0 -19 5 -19 10 0 6
-10 10 -22 10 -12 0 -33 10 -46 23 -14 12 -22 16 -18 10 4 -7 2 -13 -3 -13 -6
0 -11 5 -11 11 0 5 -4 8 -9 4 -5 -3 -15 1 -23 8 -7 8 -19 12 -27 9 -8 -3 -11
0 -7 6 3 6 -1 9 -11 8 -10 -2 -24 3 -31 11 -8 7 -18 11 -23 8 -5 -4 -9 -2 -9
3 0 5 -6 9 -12 9 -22 1 -43 8 -49 16 -3 4 -15 9 -27 10 -11 0 -20 4 -20 7 2
18 -4 23 -12 10 -6 -10 -10 -11 -10 -2 0 6 -9 12 -20 12 -11 0 -23 7 -26 15
-4 8 -10 15 -16 15 -5 0 -6 -4 -3 -10 5 -8 -22 3 -97 41 -10 5 -25 9 -33 9 -8
0 -15 5 -15 12 0 6 -3 9 -6 5 -4 -3 -19 0 -35 9 -16 8 -29 11 -29 7 0 -5 -5 0
-11 10 -6 9 -15 15 -20 11 -6 -3 -20 2 -31 13 -12 10 -18 12 -13 4 5 -9 0 -8
-17 3 -14 9 -28 13 -31 9 -4 -3 -7 -1 -7 5 0 7 -10 12 -22 12 -13 0 -32 7 -42
15 -10 8 -23 12 -27 9 -5 -3 -9 0 -9 5 0 6 -9 11 -20 11 -11 0 -20 5 -20 10 0
6 -3 9 -7 9 -23 -4 -43 2 -38 10 3 6 -4 8 -15 6 -13 -2 -23 2 -27 11 -5 13 -7
13 -14 2 -7 -10 -9 -10 -9 0 0 6 -9 12 -21 12 -11 0 -17 4 -14 10 3 5 0 7 -8
4 -8 -3 -18 0 -22 5 -3 6 -10 9 -15 6 -5 -3 -11 -1 -15 5 -3 5 -15 10 -26 10
-12 0 -17 4 -14 11 4 6 1 10 -6 8 -28 -3 -40 1 -33 12 5 8 2 9 -12 1 -14 -8
-21 -6 -31 6 -10 14 -12 15 -13 2 0 -13 -1 -13 -10 0 -7 11 -10 11 -10 2 0 -7
-5 -10 -10 -7 -6 4 -7 12 -3 18 4 8 1 7 -9 -1 -9 -7 -19 -9 -21 -4 -3 4 -24 7
-47 6 -22 -1 -43 2 -45 7 -3 4 -15 6 -27 4 -12 -3 -26 1 -30 8 -6 9 -8 9 -8
-1 0 -8 -5 -10 -12 -5 -16 9 -30 12 -85 15 -24 2 -43 5 -43 8 0 3 -21 5 -47 4
-30 0 -55 5 -67 15 -11 9 -16 10 -12 4 4 -7 2 -13 -3 -13 -6 0 -11 6 -11 13 0
8 -4 7 -10 -3 -7 -11 -10 -11 -10 -2 0 7 -5 10 -10 7 -6 -4 -18 -1 -27 7 -12
9 -15 9 -9 1 8 -15 -3 -17 -24 -3 -9 6 -17 5 -22 -3 -6 -9 -8 -9 -8 1 0 9 -7
11 -20 7 -11 -3 -20 -2 -20 3 0 4 -18 8 -40 7 -26 -1 -41 3 -45 13 -4 12 -8
12 -21 2 -11 -10 -18 -10 -26 -2 -8 8 -15 9 -25 1 -8 -8 -13 -8 -13 -1 0 5
-14 9 -31 8 -16 -1 -32 1 -34 4 -2 3 -18 5 -34 4 -17 -1 -31 1 -31 5 0 3 -19
7 -42 8 -38 1 -83 8 -83 13 0 1 -10 3 -22 4 -12 1 -20 -1 -17 -5 6 -10 -17 -5
-43 9 -17 9 -22 9 -26 -1 -4 -9 -6 -9 -6 1 -1 7 -5 11 -10 8 -5 -4 -21 -2 -36
4 -19 7 -24 7 -19 -1 4 -8 1 -8 -12 -1 -11 5 -25 7 -31 5 -7 -3 -13 1 -13 7 0
10 -3 10 -14 1 -9 -8 -16 -8 -20 -2 -4 6 -13 8 -21 4 -9 -3 -15 1 -15 8 0 9
-3 10 -8 4 -9 -13 -35 -18 -27 -5 4 6 -6 8 -25 6 -17 -2 -33 1 -36 6 -3 5 -12
4 -20 -3 -11 -9 -14 -8 -14 6 0 15 -2 15 -16 4 -9 -8 -18 -9 -22 -3 -4 5 -28
10 -54 9 -27 0 -48 3 -48 6 0 3 -16 5 -35 4 -19 -1 -35 2 -35 7 0 4 -3 7 -7 7
-5 -1 -10 -1 -13 0 -9 3 -114 11 -143 11 -20 0 -26 3 -21 12 6 9 3 9 -9 -1
-14 -11 -17 -11 -17 0 0 11 -2 11 -10 -1 -7 -11 -10 -11 -10 -2 0 7 -4 10 -10
7 -5 -3 -10 0 -10 7 0 8 -3 9 -8 3 -9 -13 -32 -18 -32 -7 0 5 -7 9 -15 9 -8 0
-15 -5 -15 -10 0 -5 -7 -4 -15 3 -9 7 -15 8 -15 2z"/>
</g>
</svg>
